HIERARCHY
ROOT Hips
{
	OFFSET 0.00000 0.00000 0.00000
	CHANNELS 6 Xposition Yposition Zposition Zrotation Yrotation Xrotation 
	JOINT RightUpLegDummy
	{
		OFFSET 0 0 0
		CHANNELS 3 Zrotation Yrotation Xrotation
		JOINT RightUpLeg
		{
			OFFSET -3.52197 -3.41223 0.04002
			CHANNELS 3 Zrotation Yrotation Xrotation
			JOINT RightLeg
			{
				OFFSET 0.00006 -17.42390 1.60435
				CHANNELS 3 Zrotation Yrotation Xrotation
				JOINT RightFoot
				{
					OFFSET 0.06153 -16.50078 -1.63901
					CHANNELS 3 Zrotation Yrotation Xrotation
					JOINT RightToes
					{
						OFFSET 0.00298 -1.73825 3.34613
						CHANNELS 3 Zrotation Yrotation Xrotation
						End Site
						{
							OFFSET 0.00480 -0.05416 3.85043
						}
					}
				}
			}
		}
	}
	JOINT SpineDummy
	{
		OFFSET 0 0 0
		CHANNELS 3 Zrotation Yrotation Xrotation
		JOINT Spine
		{
			OFFSET 0.00000 4.68130 0.00000
			CHANNELS 3 Zrotation Yrotation Xrotation
			JOINT Spine1
			{
				OFFSET -0.00000 10.10138 0.05002
				CHANNELS 3 Zrotation Yrotation Xrotation
				JOINT HEadDummy
				{
					OFFSET 0 0 0
					CHANNELS 3 Zrotation Yrotation Xrotation
					JOINT Head
					{
						OFFSET -0.00000 3.43865 0.00438
						CHANNELS 3 Zrotation Yrotation Xrotation
						End Site
						{
							OFFSET -0.11417 5.02924 0.98962
						}
					}
				}
				JOINT LeftShoulder1Dummy
				{
					OFFSET 0 0 0
					CHANNELS 3 Zrotation Yrotation Xrotation
					JOINT LeftShoulder1
					{
						OFFSET 3.53937 -0.14262 -0.08662
						CHANNELS 3 Zrotation Yrotation Xrotation
						JOINT LeftArm
						{
							OFFSET 4.04833 -0.00133 0.12681
							CHANNELS 3 Zrotation Yrotation Xrotation
							JOINT LeftForeArm
							{
								OFFSET 10.33880 -0.01036 -0.55515
								CHANNELS 3 Zrotation Yrotation Xrotation
								JOINT LeftHand
								{
									OFFSET 8.69677 0.07543 0.40060
									CHANNELS 3 Zrotation Yrotation Xrotation
									End Site
									{
										OFFSET 5.28377 -0.21905 0.59205
									}
								}
							}
						}
					}
				}
				JOINT RightShoulderDummy
				{
					OFFSET 0 0 0
					CHANNELS 3 Zrotation Yrotation Xrotation
					JOINT RightShoulder
					{
						OFFSET -3.53937 -0.14262 -0.08660
						CHANNELS 3 Zrotation Yrotation Xrotation
						JOINT RightArm
						{
							OFFSET -4.04833 -0.00133 0.12683
							CHANNELS 3 Zrotation Yrotation Xrotation
							JOINT RightForeArm
							{
								OFFSET -10.37987 -0.01039 -0.55511
								CHANNELS 3 Zrotation Yrotation Xrotation
								JOINT RightHand
								{
									OFFSET -8.67398 0.07538 0.40058
									CHANNELS 3 Zrotation Yrotation Xrotation
									End Site
									{
										OFFSET -5.24810 -0.21916 0.59204
									}
								}
							}
						}
					}
				}
			}
		}
	}
	JOINT LeftUpLegDummy
	{
		OFFSET 0 0 0
		CHANNELS 3 Zrotation Yrotation Xrotation
		JOINT LeftUpLeg
		{
			OFFSET 3.52197 -3.41223 0.04002
			CHANNELS 3 Zrotation Yrotation Xrotation
			JOINT LeftLeg
			{
				OFFSET -0.00012 -17.42399 1.60337
				CHANNELS 3 Zrotation Yrotation Xrotation
				JOINT LeftFoot
				{
					OFFSET -0.09972 -16.50070 -1.63802
					CHANNELS 3 Zrotation Yrotation Xrotation
					JOINT LeftToes
					{
						OFFSET -0.01575 -1.73823 3.34611
						CHANNELS 3 Zrotation Yrotation Xrotation
						End Site
						{
							OFFSET 0.03150 -0.01868 3.85031
						}
					}
				}
			}
		}
	}
}
MOTION
Frames: 17
Frame Time: 0.033333
22.9684 38.1288 24.3851 -4.0258 36.3387 -9.4999 0.0000 0.0000 0.0000 9.1474 0.9382 -11.6426 -3.9937 -11.6196 22.6431 -1.5546 0.0371 -6.6507 0.0000 -0.0000 0.0000 0.0000 0.0000 0.0000 0.6126 -1.4964 11.0690 5.1385 -2.3480 -2.1099 -0.0000 0.0000 -0.0000 -1.9755 -2.4356 1.2337 -0.0000 0.0000 -0.0000 -34.1298 -2.9006 2.5719 -44.4981 -13.4486 -15.1964 -11.9534 5.1481 46.7236 14.1923 -4.3702 -1.1603 -0.0000 0.0000 -0.0000 35.3770 5.2751 3.6351 39.5484 0.9933 -18.6033 10.1281 -0.6764 24.7664 -11.7001 2.3828 -0.7641 0.0000 0.0000 0.0000 7.2524 9.3825 -3.6126 -7.1298 -3.2125 62.0366 -3.5473 0.6158 9.9658 0.0000 0.0000 -0.0000
23.6613 38.1817 25.2727 -3.4325 35.2129 -9.4887 0.0000 0.0000 0.0000 9.0169 0.5957 -9.7554 -3.7305 -10.2540 23.6021 -2.8971 0.0326 -8.7350 0.0000 -0.0000 0.0000 0.0000 0.0000 0.0000 1.1857 -0.7654 11.4264 3.6604 -1.3496 -2.2206 -0.0000 0.0000 -0.0000 -1.2858 -3.1734 1.5576 -0.0000 0.0000 -0.0000 -33.7928 -2.8214 2.5186 -43.9782 -14.0453 -14.3800 -12.4000 5.2023 44.5010 14.6057 -4.5357 -1.2150 -0.0000 0.0000 -0.0000 35.4181 5.2865 3.6435 39.6216 2.9278 -16.9214 10.6177 1.0315 24.2864 -11.9879 2.4449 -0.7897 0.0000 0.0000 0.0000 6.2742 8.3584 -7.6758 -0.7774 -0.5496 63.4864 0.5671 -0.1163 5.0031 0.0000 0.0000 -0.0000
24.3425 38.2420 26.1671 -2.6163 33.9129 -9.2340 0.0000 0.0000 0.0000 8.6651 0.2661 -7.9399 -3.4798 -8.8313 24.3508 -4.2497 -0.0079 -10.5372 0.0000 -0.0000 0.0000 0.0000 0.0000 0.0000 1.0922 -0.0243 11.6043 2.8777 -0.4645 -2.2646 -0.0000 0.0000 -0.0000 -1.0480 -3.5189 1.9111 -0.0000 0.0000 -0.0000 -33.7898 -2.7463 2.4886 -43.5335 -14.2713 -14.2844 -12.5601 5.2907 40.9341 15.2058 -4.3161 -1.2398 -0.0000 0.0000 -0.0000 35.1774 5.2543 3.6087 39.5709 5.2509 -15.1148 11.0934 2.5480 24.0367 -11.6965 2.4914 -0.7741 0.0000 0.0000 0.0000 5.2664 7.5487 -11.3008 4.7852 1.6580 62.5507 3.6681 -0.4103 1.1495 0.0000 0.0000 -0.0000
25.0284 38.3221 27.0711 -1.8897 32.8380 -8.9653 0.0000 0.0000 0.0000 8.1400 -0.1213 -5.9328 -3.1483 -7.5668 24.5832 -4.5339 -0.0761 -12.1528 0.0000 -0.0000 0.0000 0.0000 0.0000 0.0000 0.7229 0.5753 11.5445 2.5617 0.1868 -2.1319 -0.0000 0.0000 -0.0000 -1.0723 -3.6331 2.1490 -0.0000 0.0000 -0.0000 -34.0079 -2.7390 2.4994 -43.1224 -14.5475 -14.5943 -12.4901 5.3613 38.0382 15.7758 -4.0343 -1.2519 -0.0000 0.0000 -0.0000 34.8886 5.2116 3.5654 39.4272 7.5872 -13.3004 11.4619 4.1557 23.4045 -11.4639 2.7051 -0.7778 0.0000 0.0000 0.0000 4.4090 6.5631 -14.2628 8.3307 3.6729 59.1328 5.7528 -0.4635 -1.9679 0.0000 0.0000 -0.0000
25.7288 38.4291 27.9841 -1.3765 31.9892 -8.7590 0.0000 0.0000 0.0000 7.6423 -0.4780 -3.5534 -2.7818 -6.5227 24.0184 -4.4844 -0.1361 -13.5302 0.0000 -0.0000 0.0000 0.0000 0.0000 0.0000 0.4899 0.9626 11.2836 2.2593 0.6203 -1.8771 -0.0000 0.0000 -0.0000 -1.1584 -3.5534 2.1740 -0.0000 0.0000 -0.0000 -34.1505 -2.7715 2.5214 -42.8495 -14.8835 -14.9732 -12.3329 5.3671 36.5799 16.2615 -3.8798 -1.2714 -0.0000 0.0000 -0.0000 34.6687 5.1806 3.5334 39.3648 9.6931 -10.9179 11.5897 6.0462 21.6281 -11.5805 2.8062 -0.7953 0.0000 0.0000 0.0000 3.8096 5.3427 -16.3975 10.0801 5.8634 53.2269 6.2670 -0.3858 -3.9062 0.0000 0.0000 -0.0000
26.4286 38.5465 28.9110 -0.9924 31.3147 -8.5220 0.0000 0.0000 0.0000 7.2475 -0.7555 -0.9827 -2.5586 -5.8352 22.8100 -4.8668 -0.1936 -14.6211 0.0000 -0.0000 0.0000 0.0000 0.0000 0.0000 0.2424 1.1505 10.8842 2.0212 0.8373 -1.6397 -0.0000 0.0000 -0.0000 -1.2478 -3.2248 1.9850 -0.0000 0.0000 -0.0000 -34.1343 -2.7833 2.5251 -42.7401 -15.0822 -15.1889 -12.2330 5.3021 36.3771 16.5940 -3.8617 -1.2959 -0.0000 0.0000 -0.0000 34.4741 5.1546 3.5057 39.4539 11.5297 -7.7821 11.4373 8.0375 18.9189 -11.7653 2.6709 -0.7958 0.0000 0.0000 0.0000 3.3744 4.4511 -17.6527 10.6187 8.4482 45.2123 5.7624 -0.3371 -4.1503 0.0000 0.0000 -0.0000
27.1218 38.6526 29.8523 -0.7548 30.8691 -8.1763 0.0000 0.0000 0.0000 6.9306 -0.9973 1.5289 -2.4484 -5.5156 21.2148 -5.1781 -0.2452 -15.5034 0.0000 -0.0000 0.0000 0.0000 0.0000 0.0000 -0.1796 1.1967 10.2513 2.0968 0.8435 -1.3556 -0.0000 0.0000 -0.0000 -1.3208 -2.7266 1.5905 -0.0000 0.0000 -0.0000 -34.1343 -2.7670 2.5186 -42.6733 -15.1991 -15.2077 -12.2379 5.3924 36.9832 16.5678 -3.8993 -1.2989 -0.0000 0.0000 -0.0000 34.2882 5.1277 3.4786 39.5732 13.0907 -4.3296 11.0684 9.8620 16.0384 -11.7746 2.6353 -0.7931 0.0000 0.0000 0.0000 2.8545 4.7523 -18.0966 9.4349 10.5260 35.4611 5.4572 -0.3390 -3.7712 0.0000 0.0000 -0.0000
27.8153 38.7805 30.7750 -0.7979 30.6008 -7.8015 0.0000 0.0000 0.0000 6.7407 -1.1961 4.1699 -2.2390 -5.3111 18.8443 -5.0861 -0.2603 -15.8782 0.0000 -0.0000 0.0000 0.0000 0.0000 0.0000 -0.5219 1.1928 9.3046 2.4430 0.7517 -0.7813 -0.0000 0.0000 -0.0000 -1.3805 -2.2670 0.9400 -0.0000 0.0000 -0.0000 -34.4069 -2.7680 2.5364 -42.4795 -15.4289 -15.2445 -12.2450 5.3614 38.0556 16.0965 -3.9377 -1.2656 -0.0000 0.0000 -0.0000 34.1029 5.1041 3.4529 39.6385 14.2875 -1.0004 10.5224 11.4907 13.3115 -11.6638 2.8896 -0.8090 0.0000 0.0000 0.0000 2.0613 6.5093 -17.7968 5.9879 9.6861 24.0686 4.8196 -0.3150 -3.3658 0.0000 0.0000 -0.0000
28.5164 38.9296 31.6509 -1.0671 30.3020 -7.5361 0.0000 0.0000 0.0000 6.6801 -1.3426 7.0658 -1.9141 -4.9741 15.7820 -5.1830 -0.2518 -15.6290 0.0000 -0.0000 0.0000 0.0000 0.0000 0.0000 -0.5387 1.2170 8.2848 2.7528 0.7116 -0.0008 -0.0000 0.0000 -0.0000 -1.4390 -1.9454 0.0778 -0.0000 0.0000 -0.0000 -34.9830 -2.8045 2.5881 -42.1489 -15.6355 -15.6000 -12.1063 5.3354 39.2942 15.3750 -3.9253 -1.2052 -0.0000 0.0000 -0.0000 33.9200 5.0890 3.4310 39.6932 14.9618 1.8795 9.8964 12.8695 10.8895 -11.5749 3.1561 -0.8272 0.0000 0.0000 0.0000 1.7386 7.2481 -16.6486 2.0136 6.9800 11.9838 2.2874 -0.1582 -2.5452 0.0000 0.0000 -0.0000
29.2536 38.9815 32.5325 -1.3091 29.9140 -7.3861 0.0000 0.0000 0.0000 6.5644 -1.5175 9.6751 -1.7104 -4.5754 13.6581 -5.5286 -0.2696 -15.7156 0.0000 -0.0000 0.0000 0.0000 0.0000 0.0000 -0.3299 1.2287 7.5621 2.7196 0.7369 0.4310 -0.0000 0.0000 -0.0000 -1.3896 -1.6753 -0.7026 -0.0000 0.0000 -0.0000 -35.4602 -2.8333 2.6307 -41.9839 -15.3938 -16.3778 -11.7413 5.3068 40.7225 14.7687 -3.8333 -1.1447 -0.0000 0.0000 -0.0000 33.8939 5.0919 3.4299 39.7374 14.9848 3.6937 9.5214 13.6236 9.4786 -11.5789 3.1961 -0.8313 0.0000 0.0000 0.0000 3.1334 3.0250 -14.9723 -0.4121 8.5653 1.9057 -1.4060 0.1209 -2.2329 0.0000 0.0000 -0.0000
30.0509 38.8886 33.4672 -1.4057 29.6056 -7.2695 0.0000 0.0000 0.0000 6.2065 -1.7790 11.6304 -1.6810 -4.2733 13.3702 -5.2951 -0.3059 -16.6397 0.0000 -0.0000 0.0000 0.0000 0.0000 0.0000 -0.0312 1.1291 7.3298 2.2242 0.7451 0.0936 -0.0000 0.0000 -0.0000 -1.1035 -1.3825 -1.1157 -0.0000 0.0000 -0.0000 -35.4054 -2.8174 2.6206 -42.3063 -14.5972 -17.4428 -11.1666 5.2703 42.5067 14.6282 -3.7234 -1.1203 -0.0000 0.0000 -0.0000 34.1905 5.1259 3.4693 39.7097 14.3392 3.6671 9.6891 13.4223 9.8721 -11.6711 3.0970 -0.8293 0.0000 0.0000 0.0000 2.7926 1.4343 -14.3024 -0.3013 8.7965 -2.8454 -3.5111 0.2707 -3.2583 0.0000 0.0000 -0.0000
30.9108 38.7308 34.4420 -1.4118 29.3553 -7.1838 0.0000 0.0000 0.0000 5.5477 -2.1051 13.2054 -1.6038 -3.7558 14.2725 -4.2762 -0.2965 -17.5424 0.0000 -0.0000 0.0000 0.0000 0.0000 0.0000 0.3635 1.0131 7.3370 1.4703 0.7829 -0.5740 -0.0000 0.0000 -0.0000 -0.7253 -1.1417 -1.2859 -0.0000 0.0000 -0.0000 -35.0537 -2.7744 2.5802 -42.9083 -13.6625 -18.6590 -10.4411 5.2251 44.5977 14.9570 -3.5842 -1.1294 -0.0000 0.0000 -0.0000 34.6767 5.1862 3.5364 39.6075 13.1230 1.5725 10.2674 12.3649 11.9788 -11.8061 2.9627 -0.8261 0.0000 0.0000 0.0000 2.0344 0.6710 -14.7359 0.4097 9.8031 -1.5779 -2.6228 0.1977 -3.4803 0.0000 0.0000 -0.0000
31.8419 38.5607 35.4720 -1.2253 28.8104 -7.1425 0.0000 0.0000 0.0000 4.3978 -2.4972 14.5378 -1.2399 -2.5072 16.2632 -2.9943 -0.2348 -17.8172 0.0000 -0.0000 0.0000 0.0000 0.0000 0.0000 0.6476 1.1508 6.8987 0.9054 1.0290 -0.5765 -0.0000 0.0000 -0.0000 -0.5565 -1.0408 -1.5660 -0.0000 0.0000 -0.0000 -35.1218 -2.7326 2.5674 -43.1666 -12.9318 -20.0043 -9.6481 5.1841 46.4498 15.2065 -3.2091 -1.1025 -0.0000 0.0000 -0.0000 35.0822 5.2479 3.5975 39.3842 11.5451 -2.3720 11.0305 10.4925 15.3632 -12.0089 2.8098 -0.8262 0.0000 0.0000 0.0000 1.2455 0.2848 -15.1726 1.2727 10.7513 2.3092 -0.6902 0.0652 -0.4285 0.0000 0.0000 -0.0000
32.8041 38.4337 36.5369 -0.5837 27.9068 -7.0323 0.0000 0.0000 0.0000 2.3528 -3.2479 15.4405 -0.3883 -0.4013 19.4025 -1.1037 -0.1181 -17.1254 0.0000 -0.0000 0.0000 0.0000 0.0000 0.0000 0.3095 1.5607 5.9799 0.8529 1.4542 0.0610 -0.0000 0.0000 -0.0000 -0.5681 -1.0219 -1.9123 -0.0000 0.0000 -0.0000 -35.7436 -2.6878 2.5883 -42.8940 -12.2094 -21.4696 -8.8862 5.1702 47.2442 14.8368 -2.5113 -0.9908 -0.0000 0.0000 -0.0000 35.3849 5.2970 3.6448 38.9677 9.8535 -7.7998 11.7965 7.3475 19.8439 -12.3491 2.7195 -0.8415 0.0000 0.0000 0.0000 0.4610 0.1110 -14.9779 1.9627 11.2812 5.9344 0.1578 -0.0441 4.4435 0.0000 0.0000 -0.0000
33.7324 38.3706 37.5788 0.4917 27.2076 -6.7543 0.0000 0.0000 0.0000 -0.5911 -4.6821 15.3646 0.9592 2.0345 24.0207 2.4995 0.0137 -14.7721 0.0000 -0.0000 0.0000 0.0000 0.0000 0.0000 -0.8053 1.8626 5.1924 1.1564 1.7204 0.3827 -0.0000 0.0000 -0.0000 -0.4069 -0.9645 -1.8533 -0.0000 0.0000 -0.0000 -36.1200 -2.6380 2.5913 -42.6824 -11.2061 -22.9132 -8.2118 5.1888 46.8276 14.0741 -1.7892 -0.8553 -0.0000 0.0000 -0.0000 35.7096 5.3407 3.6923 38.6189 8.1406 -12.8243 11.9042 3.1117 23.7694 -12.6200 2.6715 -0.8556 0.0000 0.0000 0.0000 -0.4216 0.2920 -14.4872 2.0232 11.5173 9.1190 -0.0302 -0.0399 7.2495 0.0000 0.0000 -0.0000
34.5820 38.3278 38.5159 1.5670 27.1062 -6.4441 0.0000 0.0000 0.0000 -3.6508 -6.3827 13.6732 2.4699 3.6451 30.7660 7.7053 -0.1693 -9.6372 0.0000 -0.0000 0.0000 0.0000 0.0000 0.0000 -2.0250 1.7997 5.2619 1.3140 1.6567 -0.2985 -0.0000 0.0000 -0.0000 0.0065 -0.8213 -1.2422 -0.0000 0.0000 -0.0000 -35.5924 -2.6096 2.5462 -43.0454 -10.1160 -23.9603 -7.6953 5.2086 46.2985 13.5278 -1.4635 -0.7855 -0.0000 0.0000 -0.0000 35.9785 5.3773 3.7320 38.7637 6.3067 -15.7852 11.0783 -0.8403 25.5395 -12.3177 2.3916 -0.8072 0.0000 0.0000 0.0000 -1.3878 0.7839 -14.0169 1.5267 11.2905 12.3092 0.1594 -0.0636 6.5746 0.0000 0.0000 -0.0000
35.3481 38.2673 39.3052 2.2194 27.0969 -6.4087 0.0000 0.0000 0.0000 -5.9580 -7.5249 10.4047 3.2133 3.5104 39.1559 12.7901 -1.0649 -1.9505 0.0000 -0.0000 0.0000 0.0000 0.0000 0.0000 -2.5311 1.6093 6.4066 1.1108 1.5055 -1.6636 -0.0000 0.0000 -0.0000 0.2506 -0.5601 -0.6693 -0.0000 0.0000 -0.0000 -34.6050 -2.6201 2.4889 -43.6010 -9.3841 -24.1094 -7.5686 5.1944 46.8498 13.3077 -1.6479 -0.7923 -0.0000 0.0000 -0.0000 35.9996 5.3901 3.7392 39.2415 4.3910 -18.5314 10.0615 -3.6964 27.0653 -11.2949 1.7804 -0.6834 0.0000 0.0000 0.0000 -2.2271 1.1856 -13.5076 1.2031 10.7891 15.4274 1.0458 -0.1642 4.0094 0.0000 0.0000 -0.0000
